<svg id="Layer_1" data-name="Layer 1" xmlns="http://www.w3.org/2000/svg" viewBox="0 0 400.75 66.67"><path d="M3.39,3.06h19.7V55.31H94.88V69.73H3.39Z" transform="translate(-3.39 -3.06)" style="fill:#5274b9"/><path d="M174.67,3.16c10.29,0,18.8,6.1,18.8,13.68V56.05c0,7.58-8.51,13.68-18.8,13.68H120.8c-10.42,0-18.81-6.1-18.81-13.68V16.84c0-7.58,8.39-13.68,18.81-13.68Zm-53,52.15h51.84V17.58H121.69Z" transform="translate(-3.39 -3.06)" style="fill:#5274b9"/><path d="M298.93,23.13H279V17.58H227.14V55.31H279v-10H259.16V30.9h39.77V56.05c0,7.58-8.51,13.68-18.93,13.68H226.25c-10.41,0-18.8-6.1-18.8-13.68V16.84c0-7.58,8.39-13.68,18.8-13.68H280c10.42,0,18.93,6.1,18.93,13.68Z" transform="translate(-3.39 -3.06)" style="fill:#5274b9"/><path d="M385.33,3.16c10.29,0,18.81,6.1,18.81,13.68V56.05c0,7.58-8.52,13.68-18.81,13.68H331.46c-10.42,0-18.8-6.1-18.8-13.68V16.84c0-7.58,8.38-13.68,18.8-13.68Zm-53,52.15h51.84V17.58H332.35Z" transform="translate(-3.39 -3.06)" style="fill:#5274b9"/></svg>